{"title":"The.Sorcerers.Apprentice.480p.BRRip.H264.Feel-Free","uid":5952386,"size":1525464542,"categoryP":"video","categoryS":"movies","magnet":"?xt=urn:btih:13f11b7106fd4ae9a7c3c64799a82a8d9a59fbdf&amp;dn=The.Sorcerers.Apprentice.480p.BRRip.H264.Feel-Free&amp;tr=udp%3A%2F%2Ftracker.openbittorrent.com%3A80&amp;tr=udp%3A%2F%2Fopen.demonii.com%3A1337&amp;tr=udp%3A%2F%2Ftracker.coppersurfer.tk%3A6969&amp;tr=udp%3A%2F%2Fexodus.desync.com%3A6969","seeders":0,"leechers":0,"uploader":"deffjam555","files":12,"time":1289571120,"description":"Genre:Action | Adventure | Comedy | Drama | Fantasy\nLanguage:English\nIMDb:http://www.imdb.com/title/tt0963966/\nSource:720p.Bluray.x264-CBGB\nSubtitles:Romana\n\nGeneral\nComplete name :The.Sorcerers.Apprentice.480p.BRRip.H264.Feel-Free\nFormat : MPEG-4\nFormat profile : Base Media\nCodec ID : mp42\nFile size : 1.42 GiB\nDuration : 1h 49mn\nOverall bit rate : 1 862 Kbps\nVideo #1\nCodec ID : avc1\nCodec ID/Info : Advanced Video Coding\nDuration : 1h 49mn\nBit rate mode : Variable\nBit rate : 1 381 Kbps\nWidth : 720 pixels\nHeight : 304 pixels\nDisplay aspect ratio : 2.35:1\nFrame rate mode : Constant\nFrame rate : 23.976 fps\nResolution : 24 bits\nColorimetry : 4:2:0\nScan type : Progressive\nBits/(Pixel*Frame) : 0.263\nStream size : 1.05 GiB (74%)\nAudio #2\nID : 2\nFormat : AAC\nFormat/Info : Advanced Audio Codec\nFormat version : Version 4\nFormat profile : LC\nFormat settings, SBR : No\nCodec ID : 40\nDuration : 1h 49mn\nBit rate mode : Constant\nBit rate : 477 Kbps\nNominal bit rate : 480 Kbps\nChannel(s) : 6 channels\nChannel positions : Front: L C R, Rear: L R, LFE\nSampling rate : 48.0 KHz\nResolution : 16 bits\nStream size : 372 MiB (26%)\n\nPlot:\nMaster sorcerer Balthazar Blake recruits a seemingly everyday guy in his mission to defend New York City from his arch-nemesis, Maxim Horvath\n","torrent":{"xt":"urn:btih:13f11b7106fd4ae9a7c3c64799a82a8d9a59fbdf","amp;dn":"The.Sorcerers.Apprentice.480p.BRRip.H264.Feel-Free","amp;tr":["udp%3A%2F%2Ftracker.openbittorrent.com%3A80","udp%3A%2F%2Fopen.demonii.com%3A1337","udp%3A%2F%2Ftracker.coppersurfer.tk%3A6969","udp%3A%2F%2Fexodus.desync.com%3A6969"],"infoHash":"13f11b7106fd4ae9a7c3c64799a82a8d9a59fbdf","infoHashBuffer":{"type":"Buffer","data":[19,241,27,113,6,253,74,233,167,195,198,71,153,168,42,141,154,89,251,223]},"announce":[],"urlList":[]}}